<svg id="Group_4501" data-name="Group 4501" xmlns="http://www.w3.org/2000/svg" width="45.715" height="45.715" viewBox="0 0 45.715 45.715">
  <ellipse id="Ellipse_210" data-name="Ellipse 210" cx="22.857" cy="22.857" rx="22.857" ry="22.857" fill="#df0515"/>
  <g id="Group_4495" data-name="Group 4495" transform="translate(11.86 12.708)">
    <path id="Path_20314" data-name="Path 20314" d="M2661.131,5157a.643.643,0,0,0-.6-.064l-6,2.4v-1.8a2.02,2.02,0,0,0-2.019-2.017h-7.175l1.284,1.284h5.891a.734.734,0,0,1,.734.733v5.89l2.375,2.375,4.91,1.964a.647.647,0,0,0,.239.046.64.64,0,0,0,.359-.109.647.647,0,0,0,.283-.533v-9.633A.644.644,0,0,0,2661.131,5157Zm-1,9.215-5.6-2.238v-3.259l5.6-2.236Z" transform="translate(-2639.455 -5152.202)" fill="#fff"/>
    <path id="Path_20315" data-name="Path 20315" d="M2633.006,5156.839l-5.873-5.874-1.286-1.286-8.319-8.319-1.284-1.284-3.135-3.135a.608.608,0,0,0-.115-.09.619.619,0,0,0-.76.965l2.259,2.26h-.387a2.02,2.02,0,0,0-2.019,2.017v9.633a2.02,2.02,0,0,0,2.019,2.018h11.007a2.019,2.019,0,0,0,1.846-1.2l5.172,5.172a.617.617,0,0,0,.875,0,.617.617,0,0,0,.1-.748A.6.6,0,0,0,2633.006,5156.839Zm-7.159-5.112a.735.735,0,0,1-.734.734h-11.007a.736.736,0,0,1-.734-.734v-9.633a.734.734,0,0,1,.734-.733h1.671l10.069,10.07Z" transform="translate(-2612.052 -5136.761)" fill="#fff"/>
  </g>
</svg>
