<svg id="Group_4499" data-name="Group 4499" xmlns="http://www.w3.org/2000/svg" width="45.714" height="45.714" viewBox="0 0 45.714 45.714">
  <ellipse id="Ellipse_203" data-name="Ellipse 203" cx="22.857" cy="22.857" rx="22.857" ry="22.857" transform="translate(0 0)" fill="#3deb36"/>
  <g id="Group_4482" data-name="Group 4482" transform="translate(11.895 16.022)">
    <path id="Path_20302" data-name="Path 20302" d="M2633.893,4812.547a.644.644,0,0,0-.6-.064l-6,2.4v-1.8a2.021,2.021,0,0,0-2.018-2.018h-11.008a2.021,2.021,0,0,0-2.018,2.018v9.632a2.021,2.021,0,0,0,2.018,2.019h11.008a2.021,2.021,0,0,0,2.018-2.019v-1.8l6,2.4a.653.653,0,0,0,.239.046.642.642,0,0,0,.643-.643v-9.632a.643.643,0,0,0-.282-.532Zm-7.883,10.164a.734.734,0,0,1-.733.734h-11.008a.734.734,0,0,1-.734-.734v-9.632a.734.734,0,0,1,.734-.733h11.008a.734.734,0,0,1,.733.733Zm6.88-.948-5.6-2.238v-3.258l5.6-2.238Z" transform="translate(-2612.251 -4811.061)" fill="#fff"/>
  </g>
</svg>
