<svg id="Group_4496" data-name="Group 4496" xmlns="http://www.w3.org/2000/svg" width="45.714" height="45.714" viewBox="0 0 45.714 45.714">
  <ellipse id="Ellipse_206" data-name="Ellipse 206" cx="22.857" cy="22.857" rx="22.857" ry="22.857" transform="translate(0 0)" fill="#ebebeb"/>
  <g id="Group_4485" data-name="Group 4485" transform="translate(14.034 14.385)">
    <path id="Path_20305" data-name="Path 20305" d="M3565.3,4825.275a.648.648,0,0,1-.632-.8l1.038-4.481-.029-.019a7.439,7.439,0,0,1-3.748-6.243c0-4.361,4.362-7.909,9.725-7.909s9.724,3.548,9.724,7.909-4.362,7.91-9.724,7.91a11.967,11.967,0,0,1-2.119-.19l-.024,0-3.757,3.641A.643.643,0,0,1,3565.3,4825.275Zm6.353-18.149c-4.646,0-8.425,2.965-8.425,6.61a6.335,6.335,0,0,0,3.535,5.379.653.653,0,0,1,.316.713l-.647,2.8,2.418-2.344a.643.643,0,0,1,.452-.183.651.651,0,0,1,.137.014,10.586,10.586,0,0,0,2.214.233c4.646,0,8.425-2.965,8.425-6.61S3576.3,4807.125,3571.657,4807.125Z" transform="translate(-3561.932 -4805.826)" fill-rule="evenodd"/>
  </g>
</svg>
