<svg xmlns="http://www.w3.org/2000/svg" width="45.715" height="45.715" viewBox="0 0 45.715 45.715">
  <g id="Group_4512" data-name="Group 4512" transform="translate(-213.398 -106.453)">
    <circle id="Ellipse_207" data-name="Ellipse 207" cx="22.857" cy="22.857" r="22.857" transform="translate(213.398 106.453)" fill="#ebebeb"/>
    <g id="Group_4486" data-name="Group 4486" transform="translate(229.199 122.253)">
      <path id="Path_20306" data-name="Path 20306" d="M3871.943,4829.817a.81.81,0,0,1-.573-1.383l5.673-5.673-5.673-5.674a.81.81,0,0,1,1.146-1.146l5.673,5.673,5.673-5.674a.811.811,0,0,1,1.146,1.146l-5.673,5.674,5.673,5.673a.811.811,0,0,1-1.146,1.146l-5.673-5.673-5.672,5.673A.8.8,0,0,1,3871.943,4829.817Z" transform="translate(-3871.132 -4815.703)" fill="#df0515" fill-rule="evenodd"/>
    </g>
  </g>
</svg>
