<svg xmlns="http://www.w3.org/2000/svg" width="20.618" height="22" viewBox="0 0 20.618 22">
  <g id="Group_4510" data-name="Group 4510" transform="translate(-3199 -5120.987)">
    <g id="Layer_2" data-name="Layer 2" transform="translate(3199 5120.987)">
      <path id="Path_20318" data-name="Path 20318" d="M3212.877,5139.326H3200.81a1.813,1.813,0,0,1-1.81-1.811V5122.8a1.812,1.812,0,0,1,1.81-1.81h12.067a1.812,1.812,0,0,1,1.81,1.81v14.719A1.813,1.813,0,0,1,3212.877,5139.326Z" transform="translate(-3199 -5120.987)" fill="#dbdbdb"/>
      <path id="Path_20319" data-name="Path 20319" d="M3243.371,5143.634h-1.46a.667.667,0,0,0-.128.012v14.385a1.812,1.812,0,0,1-1.812,1.811h-10.4a.71.71,0,0,0-.075.321,1.812,1.812,0,0,0,1.81,1.811h12.067a1.81,1.81,0,0,0,1.811-1.811h0v-14.718a1.81,1.81,0,0,0-1.811-1.81Z" transform="translate(-3224.564 -5139.973)" fill="#dbdbdb"/>
    </g>
  </g>
</svg>
