<svg id="Group_4500" data-name="Group 4500" xmlns="http://www.w3.org/2000/svg" width="45.714" height="45.714" viewBox="0 0 45.714 45.714">
  <ellipse id="Ellipse_202" data-name="Ellipse 202" cx="22.857" cy="22.857" rx="22.857" ry="22.857" transform="translate(0 0)" fill="#ebebeb"/>
  <g id="Group_4487" data-name="Group 4487" transform="translate(14.939 14.937)">
    <path id="Path_20307" data-name="Path 20307" d="M2314.456,4821.929a.723.723,0,0,1,0-1.445h3.775v-3.775a.723.723,0,0,1,1.445,0v4.5a.724.724,0,0,1-.722.723Zm-9.894,0a.724.724,0,0,1-.723-.723v-4.5a.723.723,0,0,1,1.446,0v3.775h3.775a.723.723,0,0,1,0,1.445Zm14.392-9.895a.723.723,0,0,1-.723-.723v-3.775h-3.775a.723.723,0,0,1,0-1.445h4.5a.723.723,0,0,1,.722.723v4.5A.723.723,0,0,1,2318.954,4812.035Zm-14.392,0a.724.724,0,0,1-.723-.723v-4.5a.724.724,0,0,1,.723-.723h4.5a.723.723,0,0,1,0,1.445h-3.775v3.775A.724.724,0,0,1,2304.562,4812.035Z" transform="translate(-2303.839 -4806.092)" fill-rule="evenodd"/>
  </g>
</svg>
