<svg id="Group_4502" data-name="Group 4502" xmlns="http://www.w3.org/2000/svg" width="45.714" height="45.714" viewBox="0 0 45.714 45.714">
  <ellipse id="Ellipse_211" data-name="Ellipse 211" cx="22.857" cy="22.857" rx="22.857" ry="22.857" transform="translate(0 0)" fill="#df0515"/>
  <g id="Group_4494" data-name="Group 4494" transform="translate(11.859 12.638)">
    <g id="Group_4493" data-name="Group 4493" transform="translate(6.722 0)">
      <path id="Path_20312" data-name="Path 20312" d="M2959.95,5148.2a.567.567,0,0,0-.567.566v.742a6.076,6.076,0,0,1-1.019,3.375l.82.82a7.235,7.235,0,0,0,1.33-4.2v-.742A.565.565,0,0,0,2959.95,5148.2Zm-6.685-8.911a4.28,4.28,0,0,0-4.275,4.221l1.128,1.128v-1.069a3.148,3.148,0,0,1,6.3,0v5.94a3.1,3.1,0,0,1-.235,1.189l.849.849a4.27,4.27,0,0,0,.516-2.039v-5.94A4.282,4.282,0,0,0,2953.265,5139.288Z" transform="translate(-2948.99 -5139.288)" fill="#fff"/>
    </g>
    <path id="Path_20313" data-name="Path 20313" d="M2932.023,5159.889a.608.608,0,0,0-.1-.127l-19.9-19.9a.512.512,0,0,0-.113-.088.618.618,0,0,0-.762.964l6.538,6.538v2.555a4.279,4.279,0,0,0,6.316,3.763h0l1.335,1.335a6.062,6.062,0,0,1-3.375,1.021,6.125,6.125,0,0,1-6.117-6.118v-.742a.566.566,0,0,0-1.132,0v.742a7.224,7.224,0,0,0,6.524,7.212l.161.016v1.859h-1.664a.566.566,0,0,0,0,1.132h4.455a.566.566,0,1,0,0-1.132h-1.662v-1.859l.159-.016a7.234,7.234,0,0,0,3.472-1.292l4.884,4.883a.618.618,0,0,0,.972-.748Zm-10.053-6.908a3.152,3.152,0,0,1-3.147-3.147v-1.425l4.339,4.339A3.143,3.143,0,0,1,2921.969,5152.98Z" transform="translate(-2910.972 -5139.614)" fill="#fff"/>
  </g>
</svg>
