<svg id="Group_4498" data-name="Group 4498" xmlns="http://www.w3.org/2000/svg" width="45.714" height="45.715" viewBox="0 0 45.714 45.715">
  <ellipse id="Ellipse_204" data-name="Ellipse 204" cx="22.857" cy="22.857" rx="22.857" ry="22.857" transform="translate(0 0)" fill="#3deb36"/>
  <g id="Group_4483" data-name="Group 4483" transform="translate(15.521 12.547)">
    <path id="Path_20303" data-name="Path 20303" d="M2936.458,4817.408a.654.654,0,1,1,0-1.309h1.574v-1.691l-.08-.008a7.311,7.311,0,0,1-6.6-7.3v-.743a.654.654,0,1,1,1.308,0v.743a6.029,6.029,0,0,0,12.059,0v-.743a.654.654,0,1,1,1.308,0v.743a7.311,7.311,0,0,1-6.6,7.3l-.079.008v1.691h1.573a.654.654,0,1,1,0,1.309Zm2.228-5.941a4.372,4.372,0,0,1-4.367-4.367v-5.941a4.367,4.367,0,0,1,8.734,0v5.941A4.372,4.372,0,0,1,2938.686,4811.467Zm0-13.366a3.062,3.062,0,0,0-3.059,3.059v5.941a3.059,3.059,0,0,0,6.118,0v-5.941A3.062,3.062,0,0,0,2938.686,4798.1Z" transform="translate(-2931.348 -4796.792)" fill="#fff"/>
  </g>
</svg>
