<svg id="Group_4497" data-name="Group 4497" xmlns="http://www.w3.org/2000/svg" width="45.714" height="45.714" viewBox="0 0 45.714 45.714">
  <ellipse id="Ellipse_205" data-name="Ellipse 205" cx="22.857" cy="22.857" rx="22.857" ry="22.857" transform="translate(0)" fill="#ebebeb"/>
  <g id="Group_4484" data-name="Group 4484" transform="translate(13.82 14.033)">
    <path id="Path_20304" data-name="Path 20304" d="M3249.731,4815.009h-14.82a1.628,1.628,0,0,0-1.626,1.626v10.58a1.628,1.628,0,0,0,1.626,1.626h3.248l-1.134,2.426a.951.951,0,0,0,.886,1.392h8.819a.952.952,0,0,0,.886-1.393l-1.134-2.425h3.248a1.628,1.628,0,0,0,1.626-1.626v-10.58a1.628,1.628,0,0,0-1.626-1.626Zm-3.587,16.3H3238.5l1.153-2.467h5.341Zm3.862-4.093a.279.279,0,0,1-.275.275h-14.82a.279.279,0,0,1-.275-.275v-10.58a.279.279,0,0,1,.275-.275h14.82a.279.279,0,0,1,.275.275Z" transform="translate(-3233.286 -4815.009)"/>
  </g>
</svg>
