<svg xmlns="http://www.w3.org/2000/svg" width="24.571" height="26.416" viewBox="0 0 24.571 26.416">
  <g id="Group_4490" data-name="Group 4490" transform="translate(0 0)">
    <g id="Group_4488" data-name="Group 4488" transform="translate(7.117 8.039)">
      <path id="Path_20308" data-name="Path 20308" d="M4204.991,4842.543a5.168,5.168,0,1,1,5.168-5.168A5.174,5.174,0,0,1,4204.991,4842.543Zm0-8.391a3.222,3.222,0,1,0,3.222,3.222A3.226,3.226,0,0,0,4204.991,4834.152Z" transform="translate(-4199.822 -4832.206)"/>
    </g>
    <g id="Group_4489" data-name="Group 4489" transform="translate(0 0)">
      <path id="Path_20309" data-name="Path 20309" d="M4179.558,4823.192a2.78,2.78,0,0,1-2.777-2.777v-.576a1.945,1.945,0,0,0-.982-1.7,1.943,1.943,0,0,0-1.965,0l-.5.287a2.777,2.777,0,0,1-3.793-1.016l-.948-1.643a2.774,2.774,0,0,1,1.017-3.792l.5-.289a1.965,1.965,0,0,0,0-3.4l-.5-.288a2.78,2.78,0,0,1-1.016-3.793l.949-1.642a2.778,2.778,0,0,1,3.793-1.016l.5.288a1.944,1.944,0,0,0,1.965,0,1.946,1.946,0,0,0,.982-1.7v-.576a2.78,2.78,0,0,1,2.777-2.777h1.9a2.78,2.78,0,0,1,2.777,2.777v.575a1.973,1.973,0,0,0,1.964,1.968,1.968,1.968,0,0,0,.983-.266l.5-.288a2.777,2.777,0,0,1,3.792,1.016l.948,1.642a2.774,2.774,0,0,1-1.016,3.793l-.5.288a1.964,1.964,0,0,0,0,3.4l.5.289a2.773,2.773,0,0,1,1.016,3.792l-.948,1.642a2.778,2.778,0,0,1-3.792,1.016l-.5-.288a1.944,1.944,0,0,0-1.965,0,1.943,1.943,0,0,0-.982,1.7v.577a2.78,2.78,0,0,1-2.777,2.777Zm-4.742-7.083a3.733,3.733,0,0,1,1.862.5,3.688,3.688,0,0,1,1.863,3.226v.577a1.017,1.017,0,0,0,1.017,1.017h1.9a1.018,1.018,0,0,0,1.017-1.017v-.577a3.689,3.689,0,0,1,1.862-3.226,3.69,3.69,0,0,1,3.725,0l.5.288a1,1,0,0,0,.507.137,1.021,1.021,0,0,0,.882-.509l.948-1.642a1.015,1.015,0,0,0-.372-1.389l-.5-.289a3.724,3.724,0,0,1,0-6.451l.5-.288a1.016,1.016,0,0,0,.372-1.389l-.948-1.642a1.016,1.016,0,0,0-1.389-.372l-.5.288a3.684,3.684,0,0,1-3.725,0,3.687,3.687,0,0,1-1.862-3.226v-.576a1.018,1.018,0,0,0-1.017-1.018h-1.9a1.018,1.018,0,0,0-1.017,1.018v.576a3.687,3.687,0,0,1-1.863,3.226,3.684,3.684,0,0,1-3.725,0l-.5-.288a1,1,0,0,0-.507-.136,1.02,1.02,0,0,0-.882.508l-.948,1.642a1.017,1.017,0,0,0,.372,1.389l.5.288a3.725,3.725,0,0,1,0,6.451l-.5.289a1.015,1.015,0,0,0-.373,1.389l.948,1.642a1.021,1.021,0,0,0,.882.509,1,1,0,0,0,.507-.138l.5-.288A3.736,3.736,0,0,1,4174.816,4816.109Z" transform="translate(-4168.22 -4796.777)"/>
    </g>
  </g>
</svg>
