<svg id="Solid" xmlns="http://www.w3.org/2000/svg" width="23.98" height="23.98" viewBox="0 0 23.98 23.98">
  <g id="Group_4491" data-name="Group 4491" transform="translate(6.176 0)">
    <path id="Path_20310" data-name="Path 20310" d="M4505.167,4825.026a1.053,1.053,0,0,1-1.052-1.052v-14.288l-2.969,2.968a1.042,1.042,0,0,1-.742.307h0a1.052,1.052,0,0,1-.742-1.8l4.76-4.76a1.052,1.052,0,0,1,1.488,0l4.765,4.764a1.052,1.052,0,0,1-1.492,1.483l-2.964-2.964v14.288A1.053,1.053,0,0,1,4505.167,4825.026Z" transform="translate(-4499.353 -4806.095)"/>
  </g>
  <g id="Group_4492" data-name="Group 4492" transform="translate(0 10.938)">
    <path id="Path_20311" data-name="Path 20311" d="M4478.066,4860.189a1.9,1.9,0,0,1-1.893-1.894v-10.1a1.052,1.052,0,1,1,2.1,0v9.886h19.773V4848.2a1.052,1.052,0,1,1,2.1,0v10.1a1.9,1.9,0,0,1-1.893,1.894Z" transform="translate(-4476.173 -4847.147)"/>
  </g>
</svg>
