<svg xmlns="http://www.w3.org/2000/svg" width="21.254" height="19.482" viewBox="0 0 21.254 19.482">
  <g id="users" transform="translate(0 -2.5)">
    <path id="Path_20316" data-name="Path 20316" d="M28.529,17.692,25.145,16a.932.932,0,0,1-.518-.838v-1.2c.081-.1.166-.212.255-.337a8.107,8.107,0,0,0,1.046-2.054,1.405,1.405,0,0,0,.824-1.281V8.876a1.413,1.413,0,0,0-.354-.93V6.062a3.175,3.175,0,0,0-.741-2.311A4.459,4.459,0,0,0,22.148,2.5a4.46,4.46,0,0,0-3.51,1.25A3.176,3.176,0,0,0,17.9,6.062V7.946a1.413,1.413,0,0,0-.354.93v1.417a1.409,1.409,0,0,0,.53,1.1,7.434,7.434,0,0,0,1.241,2.564V15.13a.936.936,0,0,1-.488.822l-3.16,1.724A3.194,3.194,0,0,0,14,20.481v1.5H30.3V20.55A3.179,3.179,0,0,0,28.529,17.692Z" transform="translate(-9.041)"/>
    <path id="Path_20317" data-name="Path 20317" d="M6.37,21.73l3.16-1.724a.406.406,0,0,0,.211-.356v-1a8,8,0,0,1-1.182-2.448,1.933,1.933,0,0,1-.589-1.392V13.4a1.935,1.935,0,0,1,.354-1.113V10.607a3.7,3.7,0,0,1,.034-.848A4.92,4.92,0,0,0,6.73,9.5a3.545,3.545,0,0,0-3.9,3.188V14.31a1.233,1.233,0,0,0-.354.825v1.223a1.264,1.264,0,0,0,.464.979,5.429,5.429,0,0,0,1.291,2.226v.972a.77.77,0,0,1-.415.678L1.463,22.693A2.807,2.807,0,0,0,0,25.158V26.5H4.428V25A3.725,3.725,0,0,1,6.37,21.73Z" transform="translate(0 -4.52)"/>
  </g>
</svg>
