<svg id="Ant_Media_light" data-name="Ant Media_light" xmlns="http://www.w3.org/2000/svg" width="152.1" height="30.049" viewBox="0 0 152.1 30.049">
  <path id="Path_97" data-name="Path 97" d="M7.567,11.262C7.523,11.219,2.783,10,2,6.61c.13-2.522,7.567-4.652,16.35-4.652,8.827,0,16.22,2.13,16.4,4.652-.827,3.348-5.523,4.61-5.563,4.652a.953.953,0,0,0-.732.957V29.054a.963.963,0,0,0,.94.956c2.392-.044,4.392-.609,5.654-1.869a5.482,5.482,0,0,0,1.651-3.7V6.7c0-4.61-9.523-6.7-18.35-6.7S0,2.088,0,6.7V24.438a5.791,5.791,0,0,0,1.7,3.783,7.176,7.176,0,0,0,5.27,1.827A1.067,1.067,0,0,0,7.312,30a.965.965,0,0,0,.957-.956V12.213a.985.985,0,0,0-.7-.952ZM6.305,12.915V28.047A4.832,4.832,0,0,1,3.084,26.83a3.705,3.705,0,0,1-1.13-2.392V10.262A11.975,11.975,0,0,0,6.305,12.915ZM34.744,24.438c0,.347-.174,3.262-4.349,3.609V12.915a11.906,11.906,0,0,0,4.349-2.653Z" fill="#df0515"/>
  <path id="Path_98" data-name="Path 98" d="M99.265,88.532l-7.7-4.392a2.108,2.108,0,0,0-3.348,1.919v8.827a2.221,2.221,0,0,0,1.044,2.049,1.757,1.757,0,0,0,.957.261,2.789,2.789,0,0,0,1.347-.391l7.7-4.392a2.125,2.125,0,0,0,0-3.882Zm-1,2.174-7.7,4.392c-.174.13-.3.13-.3.173a.628.628,0,0,1-.086-.391V86.053c0-.3,0-.348.044-.348a.548.548,0,0,1,.347.132l7.7,4.392c.217.13.261.217.3.217,0,.044-.088.13-.3.261Z" transform="translate(-75.305 -71.486)" fill="#df0515"/>
  <path id="Path_99" data-name="Path 99" d="M48.131,27.718l-2.988,2.489a41.923,41.923,0,0,0-13.133,0A35.094,35.094,0,0,1,48.131,27.718Z" transform="translate(-27.324 -23.567)" fill="#df0515"/>
  <path id="Path_100" data-name="Path 100" d="M137.393,29.837l-3.7,2.742a16.473,16.473,0,0,0-1.672-.439l3.18-2.66C135.913,29.59,136.653,29.7,137.393,29.837Z" transform="translate(-112.694 -25.164)" fill="#df0515"/>
  <path id="Path_101" data-name="Path 101" d="M158.721,34.919,154.5,37.847a13.044,13.044,0,0,0-1.7-.713l3.866-2.824h.028C157.351,34.481,158.036,34.673,158.721,34.919Z" transform="translate(-130.432 -29.287)" fill="#df0515"/>
  <path id="Path_102" data-name="Path 102" d="M179.283,42.483,174.1,45.445a11.752,11.752,0,0,0-1.262-.741l4.392-3.074C177.912,41.88,178.6,42.182,179.283,42.483Z" transform="translate(-147.538 -35.536)" fill="#df0515"/>
  <path id="Path_103" data-name="Path 103" d="M313.138,64.06h6.555l.028.116a25.453,25.453,0,0,1,.439,2.538,1.787,1.787,0,0,0,1.979,1.4h1.126a50.421,50.421,0,0,0-4.4-14.162,2.745,2.745,0,0,0-2.437-1.38H315.2c-2.372,2.714-5.31,11.916-5.31,14.174,0,.952.4,1.376,1.307,1.376h1.1c.24-1.373.512-2.7.812-3.934Zm.668-2.407a27.671,27.671,0,0,1,2.468-6.4l.13-.233.13.233a28.374,28.374,0,0,1,2.468,6.4l.044.184h-5.285Z" transform="translate(-264.525 -44.871)" fill="#df0515"/>
  <path id="Path_104" data-name="Path 104" d="M422.079,86.012h.682V78.9a5.01,5.01,0,0,0-5.217-5.358c-3.78,0-5.474,2.609-5.474,5.2v5.392a1.874,1.874,0,0,0,2.025,1.886h.776V78.943c0-1.792.95-2.95,2.418-2.95,1.219,0,2.676.55,2.676,3.177v4.952A1.922,1.922,0,0,0,422.079,86.012Z" transform="translate(-351.747 -62.774)" fill="#df0515"/>
  <path id="Path_105" data-name="Path 105" d="M510.694,68.459a4.821,4.821,0,0,1-2.209.4c-1.424,0-2.117-.783-2.117-2.393V61.427h2.625c1.238,0,1.7-.817,1.7-1.332V58.974h-4.326V56.15H505.8a2.012,2.012,0,0,0-1.342.805,2.96,2.96,0,0,0-.868,2.377v7.5c0,2.928,1.565,4.478,4.525,4.478,1.663,0,2.579-.688,2.579-1.934Z" transform="translate(-429.869 -47.93)" fill="#df0515"/>
  <path id="Path_106" data-name="Path 106" d="M619.938,52.52h-.316a11.346,11.346,0,0,0-2.388,4.547l-1.9,5.864a12.077,12.077,0,0,0-.36,1.36l-.146.767-.146-.767a21.7,21.7,0,0,0-.894-2.985l-2.2-6.2a4.12,4.12,0,0,0-4.21-2.584h-.551a104.71,104.71,0,0,0-1.247,13.6,1.763,1.763,0,0,0,1.839,1.954h.962a97.829,97.829,0,0,1,.694-11.4l.092-.5.195.47c.243.577.61,1.52.878,2.32l2.268,6.687c.527,1.562,1.38,2.421,2.4,2.421h.776a11.541,11.541,0,0,0,1.233-2.718l2.222-6.8c.173-.542.385-1.036.571-1.474.061-.146.122-.283.173-.41l.2-.5.085.53c.255,1.574.6,7.359.6,9.419a1.732,1.732,0,0,0,1.885,1.954h1.053c-.013-3.367-.479-10.047-.763-12.4C622.716,53.615,621.673,52.52,619.938,52.52Z" transform="translate(-516.929 -44.832)" fill="#df0515"/>
  <path id="Path_107" data-name="Path 107" d="M747.888,86.3c2.928,0,4.362-.878,4.362-2.675v-.739a6.009,6.009,0,0,1-3.786,1.1,3.384,3.384,0,0,1-3.641-2.7l-.028-.173h2.212c4.157,0,5.709-.782,5.709-2.881a4.674,4.674,0,0,0-4.848-4.684c-3.565,0-5.96,2.664-5.96,6.63A5.985,5.985,0,0,0,747.888,86.3Zm-3.065-7.658a2.819,2.819,0,0,1,2.764-2.8c1.6,0,2.509.732,2.509,2.025,0,1.05-.842,1.353-3.758,1.353h-1.549Z" transform="translate(-633.301 -62.783)" fill="#df0515"/>
  <path id="Path_108" data-name="Path 108" d="M832.472,63.627c3.878,0,5.845-1.982,5.845-5.889V48.944a1.762,1.762,0,0,0-1.981-1.954h-.8V53.4l-.293-.643a3.51,3.51,0,0,0-2.964-1.88c-3.426,0-5.472,2.47-5.472,6.607A5.931,5.931,0,0,0,832.472,63.627Zm-.161-10.435c1.189,0,3.181.571,3.181,4.406,0,2.464-.89,3.712-2.65,3.712-1.927,0-3.273-1.821-3.273-4.43C829.569,54.708,830.7,53.193,832.311,53.193Z" transform="translate(-705.773 -40.111)" fill="#df0515"/>
  <path id="Path_109" data-name="Path 109" d="M932.682,87.118h-.429c-1.492,0-2.05-.485-2.05-1.792V79.5c0-1.436-.7-2.165-2.071-2.165H927.4v8.3c0,2.443,1.237,3.737,3.576,3.737,1.24,0,1.7-.468,1.7-1.726Z" transform="translate(-791.638 -66.01)" fill="#df0515"/>
  <path id="Path_110" data-name="Path 110" d="M927.415,44.62a1.667,1.667,0,0,0,0,3.333,1.7,1.7,0,0,0,1.678-1.679A1.669,1.669,0,0,0,927.415,44.62Z" transform="translate(-790.27 -38.088)" fill="#df0515"/>
  <path id="Path_111" data-name="Path 111" d="M980.417,79.3c0-4.5-2.781-5.45-5.124-5.45-3.03,0-4.392,1.464-4.392,2.906v.732a5.461,5.461,0,0,1,3.922-1.318c1.7,0,2.834.414,2.834,2.442v.31H976.42c-3.953,0-6.05,1.3-6.05,3.762,0,2.24,1.992,3.806,4.847,3.806h.625a4.258,4.258,0,0,0,4.57-4.317Zm-2.732,2.893a1.866,1.866,0,0,1-2.14,2.07c-1.422,0-2.3-.634-2.3-1.7,0-1.224.921-1.723,3.181-1.723h1.26Z" transform="translate(-828.317 -63.039)" fill="#df0515"/>
</svg>
