<svg xmlns="http://www.w3.org/2000/svg" width="48.364" height="39.599" viewBox="0 0 48.364 39.599">
  <g id="Ant_Media_light" data-name="Ant Media_light" transform="translate(0 0)">
    <path id="Path_97" data-name="Path 97" d="M9.972,14.841c-.058-.056-6.3-1.661-7.331-6.131.172-3.324,9.972-6.131,21.547-6.131,11.633,0,21.375,2.807,21.606,6.131-1.09,4.412-7.279,6.075-7.331,6.131A1.256,1.256,0,0,0,37.5,16.1V38.288a1.269,1.269,0,0,0,1.239,1.26c3.152-.058,5.787-.8,7.45-2.464a7.225,7.225,0,0,0,2.176-4.871V8.826C48.364,2.751,35.815,0,24.182,0S0,2.751,0,8.826V32.205A7.632,7.632,0,0,0,2.234,37.19C3.839,38.8,6.189,39.6,9.179,39.6a1.406,1.406,0,0,0,.457-.058A1.271,1.271,0,0,0,10.9,38.28V16.095a1.3,1.3,0,0,0-.926-1.254ZM8.309,17.019V36.961a6.367,6.367,0,0,1-4.244-1.6,4.883,4.883,0,0,1-1.489-3.152V13.523A15.781,15.781,0,0,0,8.309,17.019ZM45.786,32.205c0,.457-.23,4.3-5.732,4.755V17.019a15.69,15.69,0,0,0,5.732-3.5Z" transform="translate(0 0)" fill="#df0515"/>
    <path id="Path_98" data-name="Path 98" d="M102.775,90.053,92.632,84.265a2.778,2.778,0,0,0-4.412,2.529V98.427a2.926,2.926,0,0,0,1.375,2.7,2.315,2.315,0,0,0,1.262.343,3.675,3.675,0,0,0,1.775-.515l10.143-5.787a2.8,2.8,0,0,0,0-5.116Zm-1.318,2.865L91.314,98.705c-.23.172-.4.172-.4.228a.828.828,0,0,1-.114-.515V86.787c0-.4,0-.459.058-.459a.722.722,0,0,1,.457.174l10.143,5.787c.286.172.343.286.4.286,0,.058-.116.172-.4.343Z" transform="translate(-71.201 -67.59)" fill="#df0515"/>
    <path id="Path_99" data-name="Path 99" d="M53.254,27.753l-3.937,3.28a55.247,55.247,0,0,0-17.306,0A46.248,46.248,0,0,1,53.254,27.753Z" transform="translate(-25.835 -22.282)" fill="#df0515"/>
    <path id="Path_100" data-name="Path 100" d="M139.1,29.951l-4.877,3.613a21.708,21.708,0,0,0-2.2-.579l4.19-3.505C137.15,29.625,138.126,29.773,139.1,29.951Z" transform="translate(-106.551 -23.793)" fill="#df0515"/>
    <path id="Path_101" data-name="Path 101" d="M160.6,35.113l-5.564,3.858a17.189,17.189,0,0,0-2.24-.939l5.095-3.721h.037C158.8,34.536,159.7,34.788,160.6,35.113Z" transform="translate(-123.323 -27.691)" fill="#df0515"/>
    <path id="Path_102" data-name="Path 102" d="M181.33,42.755l-6.827,3.9a15.486,15.486,0,0,0-1.663-.976l5.787-4.051C179.524,41.96,180.427,42.357,181.33,42.755Z" transform="translate(-139.497 -33.599)" fill="#df0515"/>
  </g>
</svg>
